<svg width="340" height="63" viewBox="0 0 340 63" fill="none" xmlns="http://www.w3.org/2000/svg">
<path d="M36.3591 8.23759L40.4577 19.9243C40.9497 21.327 42.274 22.266 43.7605 22.266H56.5066C58.9744 22.266 59.9498 25.4619 57.9026 26.8399L47.9949 33.509C46.6735 34.3984 46.1194 36.0678 46.6465 37.5708L50.5221 48.6216C51.3182 50.8917 48.7626 52.8662 46.767 51.5229L35.9544 44.2448C34.7728 43.4494 33.2272 43.4494 32.0456 44.2448L21.233 51.5229C19.2374 52.8662 16.6818 50.8917 17.4779 48.6216L21.3535 37.5708C21.8806 36.0678 21.3265 34.3984 20.0051 33.509L10.0974 26.8399C8.05022 25.4619 9.02565 22.266 11.4934 22.266H24.2395C25.726 22.266 27.0503 21.327 27.5423 19.9243L31.6409 8.23759C32.423 6.00741 35.577 6.00741 36.3591 8.23759Z" fill="white" stroke="white"/>
<path d="M104.359 8.23759L108.458 19.9243C108.95 21.327 110.274 22.266 111.76 22.266H124.507C126.974 22.266 127.95 25.4619 125.903 26.8399L115.995 33.509C114.674 34.3984 114.119 36.0678 114.646 37.5708L118.522 48.6216C119.318 50.8917 116.763 52.8662 114.767 51.5229L103.954 44.2448C102.773 43.4494 101.227 43.4494 100.046 44.2448L89.233 51.5229C87.2374 52.8662 84.6818 50.8917 85.4779 48.6216L89.3535 37.5708C89.8806 36.0678 89.3265 34.3984 88.0051 33.509L78.0974 26.8399C76.0502 25.4619 77.0256 22.266 79.4934 22.266H92.2395C93.726 22.266 95.0503 21.327 95.5423 19.9243L99.6409 8.23759C100.423 6.00741 103.577 6.00741 104.359 8.23759Z" fill="white" stroke="white"/>
<path d="M172.359 8.23759L176.458 19.9243C176.95 21.327 178.274 22.266 179.76 22.266H192.507C194.974 22.266 195.95 25.4619 193.903 26.8399L183.995 33.509C182.674 34.3984 182.119 36.0678 182.646 37.5708L186.522 48.6216C187.318 50.8917 184.763 52.8662 182.767 51.5229L171.954 44.2448C170.773 43.4494 169.227 43.4494 168.046 44.2448L157.233 51.5229C155.237 52.8662 152.682 50.8917 153.478 48.6216L157.354 37.5708C157.881 36.0678 157.326 34.3984 156.005 33.509L146.097 26.8399C144.05 25.4619 145.026 22.266 147.493 22.266H160.24C161.726 22.266 163.05 21.327 163.542 19.9243L167.641 8.23759C168.423 6.00741 171.577 6.00741 172.359 8.23759Z" fill="white" stroke="white"/>
<path d="M240.359 8.23759L244.458 19.9243C244.95 21.327 246.274 22.266 247.76 22.266H260.507C262.974 22.266 263.95 25.4619 261.903 26.8399L251.995 33.509C250.674 34.3984 250.119 36.0678 250.646 37.5708L254.522 48.6216C255.318 50.8917 252.763 52.8662 250.767 51.5229L239.954 44.2448C238.773 43.4494 237.227 43.4494 236.046 44.2448L225.233 51.5229C223.237 52.8662 220.682 50.8917 221.478 48.6216L225.354 37.5708C225.881 36.0678 225.326 34.3984 224.005 33.509L214.097 26.8399C212.05 25.4619 213.026 22.266 215.493 22.266H228.24C229.726 22.266 231.05 21.327 231.542 19.9243L235.641 8.23759C236.423 6.00741 239.577 6.00741 240.359 8.23759Z" fill="white" stroke="white"/>
<path d="M308.359 8.23759L312.458 19.9243C312.95 21.327 314.274 22.266 315.76 22.266H328.507C330.974 22.266 331.95 25.4619 329.903 26.8399L319.995 33.509C318.674 34.3984 318.119 36.0678 318.646 37.5708L322.522 48.6216C323.318 50.8917 320.763 52.8662 318.767 51.5229L307.954 44.2448C306.773 43.4494 305.227 43.4494 304.046 44.2448L293.233 51.5229C291.237 52.8662 288.682 50.8917 289.478 48.6216L293.354 37.5708C293.881 36.0678 293.326 34.3984 292.005 33.509L282.097 26.8399C280.05 25.4619 281.026 22.266 283.493 22.266H296.24C297.726 22.266 299.05 21.327 299.542 19.9243L303.641 8.23759C304.423 6.00741 307.577 6.00741 308.359 8.23759Z" fill="url(#paint0_linear_152_13)" stroke="white"/>
<defs>
<linearGradient id="paint0_linear_152_13" x1="311.5" y1="32" x2="340" y2="32" gradientUnits="userSpaceOnUse">
<stop stop-color="white"/>
<stop offset="0.0001" stop-color="#6A70F3" stop-opacity="0"/>
</linearGradient>
</defs>
</svg>
