<svg width="42" height="44" viewBox="0 0 42 44" fill="none" xmlns="http://www.w3.org/2000/svg">
<path d="M14.4434 43.5443C12.5501 43.5352 10.6775 43.1496 8.93455 42.4099C7.19166 41.6703 5.61329 40.5913 4.29131 39.2359C2.97925 37.9924 1.92528 36.5023 1.18972 34.851C0.454159 33.1996 0.0514423 31.4195 0.00461435 29.6124C-0.0422136 27.8052 0.267767 26.0066 0.916816 24.3194C1.56587 22.6322 2.54124 21.0895 3.78714 19.7797L20.6538 2.75259C21.5545 1.85352 22.6281 1.14631 23.8097 0.67366C24.9914 0.201011 26.2565 -0.0272721 27.5288 0.00259418C28.8917 0.00723513 30.24 0.283183 31.4951 0.814347C32.7502 1.34551 33.887 2.12126 34.8392 3.09634C36.7344 4.92106 37.8335 7.41961 37.8978 10.0497C37.9622 12.6797 36.9866 15.229 35.183 17.1443L18.2246 34.1713C17.6815 34.7182 17.0351 35.1517 16.3231 35.4468C15.611 35.7418 14.8475 35.8925 14.0767 35.8901C13.2441 35.8912 12.4197 35.7255 11.6522 35.4027C10.8847 35.08 10.1896 34.6067 9.60797 34.0109C8.44547 32.8854 7.77412 31.3466 7.73979 29.7288C7.70546 28.1111 8.31093 26.5452 9.42464 25.3713L25.0767 9.65051C25.5222 9.35467 26.0571 9.22392 26.5888 9.2809C27.1205 9.33789 27.6155 9.57902 27.9882 9.96255C28.3608 10.3461 28.5876 10.8478 28.6293 11.381C28.6709 11.9141 28.5248 12.445 28.2163 12.8818L12.5642 28.6026C12.3032 28.917 12.1762 29.3214 12.2105 29.7286C12.2448 30.1359 12.4376 30.5133 12.7476 30.7797C13.07 31.1044 13.5047 31.293 13.9621 31.3068C14.1316 31.3092 14.2998 31.278 14.4571 31.2151C14.6145 31.1522 14.7578 31.0587 14.8788 30.9401L31.8142 13.913C32.7648 12.857 33.2617 11.4693 33.1973 10.0498C33.133 8.63042 32.5127 7.29333 31.4705 6.32759C30.5024 5.32256 29.186 4.72678 27.7921 4.66283C26.3981 4.59889 25.0327 5.07165 23.9767 5.98384L7.0413 22.9193C6.21778 23.8038 5.5773 24.8424 5.1567 25.9754C4.7361 27.1084 4.5437 28.3134 4.59055 29.521C4.63741 30.7286 4.92261 31.9151 5.42973 33.0121C5.93685 34.1091 6.65589 35.095 7.54547 35.913C8.43756 36.8378 9.505 37.5755 10.6854 38.0831C11.8659 38.5907 13.1356 38.8579 14.4205 38.8693C15.5283 38.8783 16.627 38.6683 17.6534 38.2514C18.6799 37.8345 19.6139 37.219 20.4017 36.4401L37.3371 19.413C37.5493 19.1993 37.8015 19.0296 38.0793 18.9133C38.357 18.7971 38.655 18.7368 38.9561 18.7357C39.2572 18.7346 39.5556 18.7929 39.8342 18.9071C40.1128 19.0214 40.3662 19.1894 40.5798 19.4016C40.7935 19.6137 40.9633 19.8659 41.0795 20.1437C41.1957 20.4215 41.2561 20.7194 41.2572 21.0205C41.2582 21.3216 41.2 21.62 41.0857 21.8986C40.9715 22.1772 40.8035 22.4306 40.5913 22.6443L23.6559 39.6713C22.4535 40.895 21.0199 41.8676 19.4383 42.5324C17.8568 43.1973 16.159 43.5412 14.4434 43.5443Z" fill="black"/>
</svg>
