<svg width="34" height="34" viewBox="0 0 34 34" fill="none" xmlns="http://www.w3.org/2000/svg">
<path d="M11.9 34C11.4491 34 11.0167 33.8209 10.6979 33.5021C10.3791 33.1833 10.2 32.7509 10.2 32.3V27.2H3.4C2.49826 27.2 1.63346 26.8418 0.995837 26.2042C0.358213 25.5665 0 24.7017 0 23.8V3.4C0 2.49826 0.358213 1.63346 0.995837 0.995837C1.63346 0.358213 2.49826 0 3.4 0H30.6C31.5017 0 32.3665 0.358213 33.0042 0.995837C33.6418 1.63346 34 2.49826 34 3.4V23.8C34 24.7017 33.6418 25.5665 33.0042 26.2042C32.3665 26.8418 31.5017 27.2 30.6 27.2H20.23L13.94 33.507C13.6 33.83 13.175 34 12.75 34H11.9Z" fill="black"/>
</svg>
