<svg width="33" height="39" viewBox="0 0 33 39" fill="none" xmlns="http://www.w3.org/2000/svg">
<path d="M27.5 39C25.9722 39 24.6736 38.4313 23.6042 37.2938C22.5347 36.1562 22 34.775 22 33.15C22 32.9225 22.0153 32.6866 22.0458 32.4422C22.0764 32.1978 22.1222 31.9787 22.1833 31.785L9.25833 23.79C8.73889 24.2775 8.15833 24.6597 7.51667 24.9366C6.875 25.2135 6.20278 25.3513 5.5 25.35C3.97222 25.35 2.67361 24.7812 1.60417 23.6438C0.534722 22.5063 0 21.125 0 19.5C0 17.875 0.534722 16.4937 1.60417 15.3563C2.67361 14.2188 3.97222 13.65 5.5 13.65C6.20278 13.65 6.875 13.7885 7.51667 14.0654C8.15833 14.3423 8.73889 14.7238 9.25833 15.21L22.1833 7.215C22.1222 7.02 22.0764 6.80095 22.0458 6.55785C22.0153 6.31475 22 6.0788 22 5.85C22 4.225 22.5347 2.84375 23.6042 1.70625C24.6736 0.56875 25.9722 0 27.5 0C29.0278 0 30.3264 0.56875 31.3958 1.70625C32.4653 2.84375 33 4.225 33 5.85C33 7.475 32.4653 8.85625 31.3958 9.99375C30.3264 11.1313 29.0278 11.7 27.5 11.7C26.7972 11.7 26.125 11.5622 25.4833 11.2866C24.8417 11.011 24.2611 10.6288 23.7417 10.14L10.8167 18.135C10.8778 18.33 10.9236 18.5497 10.9542 18.7941C10.9847 19.0385 11 19.2738 11 19.5C11 19.7275 10.9847 19.9634 10.9542 20.2078C10.9236 20.4522 10.8778 20.6713 10.8167 20.865L23.7417 28.86C24.2611 28.3725 24.8417 27.9909 25.4833 27.7153C26.125 27.4397 26.7972 27.3013 27.5 27.3C29.0278 27.3 30.3264 27.8688 31.3958 29.0063C32.4653 30.1438 33 31.525 33 33.15C33 34.775 32.4653 36.1562 31.3958 37.2938C30.3264 38.4313 29.0278 39 27.5 39Z" fill="black"/>
</svg>
