<svg width="46" height="46" viewBox="0 0 46 46" fill="none" xmlns="http://www.w3.org/2000/svg">
<path d="M37.8127 11.4583C38.7243 11.4583 39.5987 11.0962 40.2433 10.4515C40.888 9.80686 41.2502 8.93251 41.2502 8.02083C41.2502 7.10915 40.888 6.23481 40.2433 5.59015C39.5987 4.9455 38.7243 4.58333 37.8127 4.58333C36.901 4.58333 36.0266 4.9455 35.382 5.59015C34.7373 6.23481 34.3752 7.10915 34.3752 8.02083C34.3752 8.93251 34.7373 9.80686 35.382 10.4515C36.0266 11.0962 36.901 11.4583 37.8127 11.4583ZM1.35225 21.9542L21.9772 1.32917C22.8022 0.504166 23.9481 0 25.2085 0H41.2502C43.7939 0 45.8335 2.03958 45.8335 4.58333V20.625C45.8335 21.8854 45.3293 23.0312 44.4814 23.8562L23.8793 44.4812C23.0314 45.3062 21.8856 45.8333 20.6252 45.8333C19.3647 45.8333 18.2189 45.3062 17.3939 44.4812L1.35225 28.4396C0.504326 27.6146 0.000164032 26.4687 0.000164032 25.2083C0.000164032 23.925 0.527245 22.7792 1.35225 21.9542Z" fill="black"/>
</svg>
