<svg width="59" height="59" viewBox="0 0 59 59" fill="none" xmlns="http://www.w3.org/2000/svg">
<path d="M51.2493 36.5201L40.3919 31.6549L40.362 31.6411C39.7983 31.4 39.1835 31.3032 38.573 31.3596C37.9626 31.4159 37.3758 31.6236 36.8658 31.9637C36.8057 32.0034 36.748 32.0465 36.6929 32.0928L31.0833 36.875C27.5295 35.1488 23.8604 31.5074 22.1342 27.9997L26.9234 22.3048C26.9694 22.2472 27.0132 22.1896 27.0547 22.1273C27.3876 21.6187 27.5895 21.0356 27.6426 20.4301C27.6957 19.8245 27.5982 19.2153 27.3589 18.6565V18.6288L22.4799 7.75299C22.1636 7.02301 21.6196 6.41492 20.9293 6.01949C20.2389 5.62406 19.4392 5.4625 18.6495 5.55893C15.5266 5.96987 12.6601 7.50355 10.5853 9.87352C8.51048 12.2435 7.36934 15.2877 7.37499 18.4375C7.37499 36.7367 22.2633 51.625 40.5625 51.625C43.7123 51.6307 46.7565 50.4895 49.1265 48.4147C51.4965 46.34 53.0302 43.4734 53.4411 40.3505C53.5377 39.5611 53.3765 38.7615 52.9815 38.0712C52.5865 37.3809 51.9789 36.8368 51.2493 36.5201ZM40.5625 47.9375C32.7412 47.929 25.2427 44.8182 19.7123 39.2877C14.1818 33.7573 11.071 26.2588 11.0625 18.4375C11.0538 16.187 11.8646 14.0102 13.3435 12.3138C14.8224 10.6173 16.8682 9.51715 19.0989 9.21877C19.098 9.22797 19.098 9.23723 19.0989 9.24643L23.9388 20.0785L19.175 25.7803C19.1266 25.8359 19.0827 25.8952 19.0436 25.9577C18.6968 26.4899 18.4933 27.1027 18.453 27.7366C18.4126 28.3706 18.5367 29.0042 18.8132 29.5761C20.9012 33.8467 25.2041 38.1172 29.5207 40.203C30.0968 40.4769 30.7341 40.5967 31.3703 40.5506C32.0066 40.5046 32.62 40.2943 33.1506 39.9403C33.2098 39.9004 33.2667 39.8573 33.3212 39.8112L38.9239 35.0313L49.7559 39.8826H49.7812C49.4865 42.1165 48.388 44.1664 46.6912 45.649C44.9945 47.1315 42.8157 47.9451 40.5625 47.9375Z" fill="white"/>
</svg>
