<svg width="58" height="58" viewBox="0 0 58 58" fill="none" xmlns="http://www.w3.org/2000/svg">
<path d="M29.0024 21.75C27.0796 21.75 25.2355 22.5139 23.8759 23.8735C22.5163 25.2332 21.7524 27.0772 21.7524 29C21.7524 30.9229 22.5163 32.7669 23.8759 34.1266C25.2355 35.4862 27.0796 36.25 29.0024 36.25C30.9252 36.25 32.7693 35.4862 34.1289 34.1266C35.4886 32.7669 36.2524 30.9229 36.2524 29C36.2524 27.0772 35.4886 25.2332 34.1289 23.8735C32.7693 22.5139 30.9252 21.75 29.0024 21.75ZM29.0024 16.9167C32.2071 16.9167 35.2806 18.1898 37.5466 20.4558C39.8127 22.7219 41.0858 25.7953 41.0858 29C41.0858 32.2047 39.8127 35.2782 37.5466 37.5443C35.2806 39.8103 32.2071 41.0834 29.0024 41.0834C25.7977 41.0834 22.7243 39.8103 20.4582 37.5443C18.1922 35.2782 16.9191 32.2047 16.9191 29C16.9191 25.7953 18.1922 22.7219 20.4582 20.4558C22.7243 18.1898 25.7977 16.9167 29.0024 16.9167ZM44.7108 16.3125C44.7108 17.1137 44.3925 17.8821 43.826 18.4486C43.2595 19.0151 42.4911 19.3334 41.6899 19.3334C40.8887 19.3334 40.1204 19.0151 39.5539 18.4486C38.9874 17.8821 38.6691 17.1137 38.6691 16.3125C38.6691 15.5114 38.9874 14.743 39.5539 14.1765C40.1204 13.61 40.8887 13.2917 41.6899 13.2917C42.4911 13.2917 43.2595 13.61 43.826 14.1765C44.3925 14.743 44.7108 15.5114 44.7108 16.3125ZM29.0024 9.66671C23.0236 9.66671 22.0473 9.68362 19.2657 9.80687C17.371 9.89629 16.0998 10.15 14.9205 10.6092C13.9336 10.9716 13.0413 11.5523 12.3105 12.3081C11.5541 13.0389 10.9725 13.9311 10.6092 14.9181C10.15 16.1023 9.89625 17.371 9.80925 19.2633C9.68359 21.9313 9.66667 22.8641 9.66667 29C9.66667 34.9813 9.68359 35.9552 9.80684 38.7368C9.89626 40.629 10.15 41.9026 10.6068 43.0795C11.0176 44.1308 11.5009 44.8872 12.3033 45.6895C13.1177 46.5015 13.8741 46.9873 14.9133 47.3885C16.1071 47.85 17.3783 48.1062 19.2633 48.1932C21.9313 48.3189 22.8641 48.3334 29 48.3334C34.9813 48.3334 35.9552 48.3165 38.7368 48.1932C40.6266 48.1038 41.8978 47.85 43.0795 47.3933C44.0655 47.0292 44.9574 46.4486 45.6895 45.6944C46.5039 44.8824 46.9897 44.126 47.3908 43.0844C47.85 41.8954 48.1062 40.6242 48.1932 38.7344C48.3188 36.0688 48.3333 35.1335 48.3333 29C48.3333 23.0212 48.3164 22.0449 48.1932 19.2633C48.1038 17.3735 47.8476 16.0975 47.3908 14.9181C47.0266 13.9322 46.446 13.0403 45.6919 12.3081C44.9614 11.5513 44.0692 10.9697 43.0819 10.6068C41.8978 10.1476 40.6266 9.89387 38.7368 9.80687C36.0712 9.68121 35.1408 9.66671 29.0024 9.66671ZM29.0024 4.83337C35.5685 4.83337 36.3878 4.85754 38.9663 4.97837C41.5377 5.09921 43.2922 5.50279 44.8316 6.10212C46.4266 6.71596 47.7703 7.54729 49.1139 8.88854C50.3428 10.0966 51.2936 11.558 51.9003 13.1709C52.4973 14.7103 52.9033 16.4648 53.0241 19.0385C53.1377 21.6147 53.1691 22.434 53.1691 29C53.1691 35.5661 53.1449 36.3854 53.0241 38.9615C52.9033 41.5353 52.4973 43.2874 51.9003 44.8292C51.2953 46.443 50.3442 47.9047 49.1139 49.1115C47.9055 50.34 46.4443 51.2908 44.8316 51.898C43.2922 52.4949 41.5377 52.9009 38.9663 53.0217C36.3878 53.1353 35.5685 53.1667 29.0024 53.1667C22.4363 53.1667 21.6171 53.1425 19.0385 53.0217C16.4672 52.9009 14.7151 52.4949 13.1733 51.898C11.5597 51.2925 10.0981 50.3415 8.89092 49.1115C7.66188 47.9036 6.71099 46.4422 6.1045 44.8292C5.50517 43.2898 5.10159 41.5353 4.98075 38.9615C4.86475 36.3854 4.83575 35.5661 4.83575 29C4.83575 22.434 4.85992 21.6147 4.98075 19.0385C5.10159 16.4624 5.50517 14.7127 6.1045 13.1709C6.70924 11.557 7.66036 10.0952 8.89092 8.88854C10.0985 7.65902 11.56 6.70805 13.1733 6.10212C14.7127 5.50279 16.4648 5.09921 19.0385 4.97837C21.6171 4.86479 22.4363 4.83337 29.0024 4.83337Z" fill="white"/>
</svg>
