<svg width="233" height="55" viewBox="0 0 233 55" fill="none" xmlns="http://www.w3.org/2000/svg">
<path d="M69.104 26.4009C66.3111 13.6647 62.1688 5.54039 55.5297 3.56061C54.2438 3.18222 52.9105 2.99347 51.571 3.0002C47.4895 3.0002 44.2686 5.45006 36.9995 5.45006C29.7304 5.45006 26.5034 3.0002 22.4279 3.0002C21.0326 2.99292 19.643 3.18153 18.2993 3.56061C11.651 5.54039 7.5436 13.6724 4.71884 26.4009C1.83488 39.402 2.35703 49.6745 7.99441 51.6466C11.9409 53.0247 15.4699 50.1752 18.8123 45.9813C22.607 41.2041 27.2805 39.7342 36.9995 39.7342C46.7184 39.7342 51.2098 41.2041 55.0105 45.9813C58.3499 50.1782 62.0095 52.9925 65.8512 51.6711C72.0775 49.526 71.9895 39.5551 69.104 26.4009Z" stroke="white" stroke-width="5" stroke-miterlimit="10"/>
<path d="M52 31C51.6042 31 51.2173 30.8826 50.8883 30.6626C50.5593 30.4426 50.303 30.13 50.1518 29.7642C50.0005 29.3985 49.9612 28.9961 50.0388 28.608C50.1164 28.2199 50.3074 27.8635 50.5876 27.584C50.8678 27.3045 51.2246 27.1144 51.6129 27.0378C52.0012 26.9612 52.4035 27.0015 52.7688 27.1537C53.1342 27.3058 53.4462 27.5629 53.6654 27.8925C53.8845 28.2221 54.001 28.6092 54 29.005C53.9987 29.5346 53.7874 30.042 53.4124 30.416C53.0375 30.79 52.5296 31 52 31Z" fill="white"/>
<path d="M52 19C51.6042 19 51.2173 18.8826 50.8883 18.6626C50.5593 18.4426 50.303 18.13 50.1518 17.7642C50.0005 17.3985 49.9612 16.9961 50.0388 16.608C50.1164 16.2199 50.3074 15.8635 50.5876 15.584C50.8678 15.3045 51.2246 15.1144 51.6129 15.0378C52.0012 14.9612 52.4035 15.0015 52.7688 15.1537C53.1342 15.3058 53.4462 15.5629 53.6654 15.8925C53.8845 16.2221 54.001 16.6092 54 17.005C53.9987 17.5346 53.7874 18.042 53.4124 18.416C53.0375 18.79 52.5296 19 52 19Z" fill="white"/>
<path d="M46 25C45.6042 25 45.2173 24.8826 44.8883 24.6626C44.5593 24.4426 44.303 24.13 44.1518 23.7642C44.0005 23.3985 43.9612 22.9961 44.0388 22.608C44.1164 22.2199 44.3074 21.8635 44.5876 21.584C44.8678 21.3045 45.2246 21.1144 45.6129 21.0378C46.0012 20.9612 46.4035 21.0015 46.7688 21.1537C47.1342 21.3058 47.4462 21.5629 47.6654 21.8925C47.8845 22.2221 48.001 22.6092 48 23.005C47.9987 23.5346 47.7874 24.042 47.4124 24.416C47.0375 24.79 46.5296 25 46 25Z" fill="white"/>
<path d="M58 25C57.6042 25 57.2173 24.8826 56.8883 24.6626C56.5593 24.4426 56.303 24.13 56.1518 23.7642C56.0005 23.3985 55.9612 22.9961 56.0388 22.608C56.1164 22.2199 56.3074 21.8635 56.5876 21.584C56.8678 21.3045 57.2246 21.1144 57.6129 21.0378C58.0012 20.9612 58.4035 21.0015 58.7688 21.1537C59.1342 21.3058 59.4462 21.5629 59.6654 21.8925C59.8845 22.2221 60.001 22.6092 60 23.005C59.9987 23.5346 59.7874 24.042 59.4124 24.416C59.0375 24.79 58.5296 25 58 25Z" fill="white"/>
<path d="M22.5 15V30M30 22.5H15" stroke="white" stroke-width="6" stroke-linecap="round" stroke-linejoin="round"/>
<path d="M99.6 39.32C97.8933 39.32 96.304 39 94.832 38.36C93.36 37.6987 92.1653 36.7813 91.248 35.608C90.9707 35.2453 90.832 34.872 90.832 34.488C90.832 33.976 91.0773 33.5067 91.568 33.08C91.9093 32.8027 92.304 32.664 92.752 32.664C93.392 32.664 93.9573 32.984 94.448 33.624C94.9813 34.3493 95.696 34.9147 96.592 35.32C97.5093 35.7253 98.512 35.928 99.6 35.928C100.901 35.928 101.861 35.5653 102.48 34.84C103.099 34.1147 103.408 33.0053 103.408 31.512V18.2C103.408 17.6027 103.6 17.1333 103.984 16.792C104.368 16.4507 104.88 16.28 105.52 16.28C106.16 16.28 106.672 16.4613 107.056 16.824C107.461 17.1653 107.664 17.624 107.664 18.2V31.384C107.664 32.984 107.333 34.3813 106.672 35.576C106.011 36.7707 105.072 37.6987 103.856 38.36C102.64 39 101.221 39.32 99.6 39.32ZM119.969 39.32C118.113 39.32 116.46 38.9893 115.009 38.328C113.58 37.6453 112.46 36.6853 111.649 35.448C110.839 34.2107 110.433 32.7813 110.433 31.16C110.433 29.5387 110.839 28.1093 111.649 26.872C112.46 25.6347 113.58 24.6853 115.009 24.024C116.46 23.3413 118.113 23 119.969 23C121.825 23 123.468 23.3413 124.897 24.024C126.348 24.6853 127.479 25.6347 128.289 26.872C129.1 28.1093 129.505 29.5387 129.505 31.16C129.505 32.7813 129.1 34.2107 128.289 35.448C127.479 36.6853 126.348 37.6453 124.897 38.328C123.468 38.9893 121.825 39.32 119.969 39.32ZM119.969 35.992C121.612 35.992 122.903 35.5653 123.841 34.712C124.801 33.8587 125.281 32.6747 125.281 31.16C125.281 29.6453 124.801 28.4613 123.841 27.608C122.903 26.7547 121.612 26.328 119.969 26.328C118.327 26.328 117.025 26.7547 116.065 27.608C115.127 28.4613 114.657 29.6453 114.657 31.16C114.657 32.6747 115.127 33.8587 116.065 34.712C117.025 35.5653 118.327 35.992 119.969 35.992ZM141.344 47C139.68 47 138.144 46.7547 136.736 46.264C135.35 45.7733 134.262 45.1013 133.472 44.248C133.174 43.928 133.024 43.5653 133.024 43.16C133.024 42.6267 133.28 42.1467 133.792 41.72C134.112 41.464 134.454 41.336 134.816 41.336C135.371 41.336 135.99 41.6453 136.672 42.264C137.184 42.7333 137.824 43.096 138.592 43.352C139.382 43.6293 140.224 43.768 141.12 43.768C142.784 43.768 144.075 43.2667 144.992 42.264C145.91 41.2613 146.347 39.8747 146.304 38.104L146.272 36.824C145.547 37.6773 144.694 38.3067 143.712 38.712C142.752 39.1173 141.568 39.32 140.16 39.32C137.536 39.32 135.488 38.6053 134.016 37.176C132.544 35.7253 131.808 33.72 131.808 31.16C131.808 28.6 132.555 26.6053 134.048 25.176C135.563 23.7253 137.664 23 140.352 23C141.462 23 142.528 23.224 143.552 23.672C144.576 24.12 145.494 24.7493 146.304 25.56V24.92C146.304 24.3227 146.496 23.8533 146.88 23.512C147.264 23.1707 147.776 23 148.416 23C149.056 23 149.558 23.1707 149.92 23.512C150.304 23.832 150.496 24.3013 150.496 24.92V38.104C150.496 39.8107 150.123 41.336 149.376 42.68C148.651 44.024 147.595 45.08 146.208 45.848C144.843 46.616 143.222 47 141.344 47ZM140.992 35.992C142.656 35.992 143.958 35.5653 144.896 34.712C145.835 33.8587 146.304 32.6747 146.304 31.16C146.304 29.6453 145.835 28.4613 144.896 27.608C143.958 26.7547 142.656 26.328 140.992 26.328C139.435 26.328 138.219 26.7547 137.344 27.608C136.47 28.4613 136.032 29.6453 136.032 31.16C136.032 32.6747 136.47 33.8587 137.344 34.712C138.219 35.5653 139.435 35.992 140.992 35.992ZM159.841 39.32C158.518 39.32 157.345 39.096 156.321 38.648C155.318 38.2 154.529 37.5813 153.953 36.792C153.398 35.9813 153.121 35.0533 153.121 34.008C153.121 32.4293 153.771 31.1707 155.073 30.232C156.395 29.2933 158.177 28.824 160.417 28.824C162.358 28.824 163.915 29.24 165.089 30.072V29.304C165.089 28.3013 164.779 27.5333 164.161 27C163.542 26.4667 162.646 26.2 161.473 26.2C159.723 26.2 158.219 26.5733 156.961 27.32C156.427 27.6187 155.969 27.768 155.585 27.768C155.115 27.768 154.699 27.5547 154.337 27.128C154.102 26.8293 153.985 26.52 153.985 26.2C153.985 25.6667 154.262 25.1973 154.817 24.792C155.585 24.2373 156.555 23.8 157.729 23.48C158.902 23.16 160.139 23 161.441 23C163.915 23 165.857 23.5653 167.265 24.696C168.694 25.8053 169.409 27.3413 169.409 29.304V37.528C169.409 38.0827 169.217 38.52 168.833 38.84C168.47 39.16 167.969 39.32 167.329 39.32C166.667 39.32 166.155 39.1707 165.793 38.872C165.43 38.5733 165.249 38.1467 165.249 37.592V37.24C164.033 38.6267 162.23 39.32 159.841 39.32ZM160.833 36.376C162.177 36.376 163.222 36.1733 163.969 35.768C164.737 35.3413 165.121 34.7547 165.121 34.008C165.121 33.304 164.737 32.7387 163.969 32.312C163.201 31.8853 162.177 31.672 160.897 31.672C159.745 31.672 158.849 31.8747 158.209 32.28C157.59 32.6853 157.281 33.2613 157.281 34.008C157.281 34.7547 157.59 35.3413 158.209 35.768C158.827 36.1733 159.702 36.376 160.833 36.376ZM184.434 34.872C184.776 35.1493 184.946 35.4907 184.946 35.896C184.946 36.3013 184.797 36.7173 184.498 37.144C184.029 37.8267 183.368 38.36 182.514 38.744C181.661 39.128 180.701 39.32 179.634 39.32C177.928 39.32 176.584 38.8613 175.602 37.944C174.642 37.0053 174.162 35.7253 174.162 34.104V26.616H172.85C172.21 26.616 171.698 26.4667 171.314 26.168C170.93 25.8693 170.738 25.4747 170.738 24.984C170.738 24.472 170.92 24.0667 171.282 23.768C171.666 23.4693 172.189 23.32 172.85 23.32H174.162V18.488C174.162 17.8907 174.354 17.4213 174.738 17.08C175.122 16.7387 175.634 16.568 176.274 16.568C176.936 16.568 177.448 16.7387 177.81 17.08C178.173 17.4213 178.354 17.8907 178.354 18.488V23.32H181.426C182.088 23.32 182.6 23.4693 182.962 23.768C183.346 24.0667 183.538 24.472 183.538 24.984C183.538 25.4747 183.346 25.8693 182.962 26.168C182.6 26.4667 182.088 26.616 181.426 26.616H178.354V34.456C178.354 34.9253 178.493 35.2987 178.77 35.576C179.069 35.8533 179.464 35.992 179.954 35.992C180.338 35.992 180.669 35.9387 180.946 35.832C181.245 35.704 181.544 35.5013 181.842 35.224C182.397 34.6907 182.909 34.424 183.378 34.424C183.72 34.424 184.072 34.5733 184.434 34.872ZM189.877 21.016C189.088 21.016 188.448 20.8027 187.957 20.376C187.488 19.928 187.253 19.352 187.253 18.648C187.253 17.944 187.488 17.3787 187.957 16.952C188.448 16.504 189.088 16.28 189.877 16.28C190.667 16.28 191.307 16.504 191.797 16.952C192.309 17.3787 192.565 17.944 192.565 18.648C192.565 19.352 192.309 19.928 191.797 20.376C191.307 20.8027 190.667 21.016 189.877 21.016ZM189.909 39.32C189.248 39.32 188.736 39.1493 188.373 38.808C188.011 38.4667 187.829 37.9973 187.829 37.4V24.92C187.829 24.3227 188.011 23.8533 188.373 23.512C188.736 23.1707 189.248 23 189.909 23C190.549 23 191.061 23.1707 191.445 23.512C191.829 23.8533 192.021 24.3227 192.021 24.92V37.4C192.021 37.9973 191.829 38.4667 191.445 38.808C191.061 39.1493 190.549 39.32 189.909 39.32ZM197.583 39.32C196.922 39.32 196.41 39.1493 196.047 38.808C195.685 38.4667 195.503 37.9973 195.503 37.4V24.92C195.503 24.3013 195.674 23.832 196.015 23.512C196.378 23.1707 196.879 23 197.519 23C198.159 23 198.661 23.1707 199.023 23.512C199.386 23.8533 199.567 24.3227 199.567 24.92V25.848C201.082 23.9493 203.151 23 205.775 23C207.823 23 209.434 23.6507 210.607 24.952C211.802 26.232 212.399 27.9813 212.399 30.2V37.4C212.399 37.9973 212.207 38.4667 211.823 38.808C211.439 39.1493 210.927 39.32 210.287 39.32C209.626 39.32 209.114 39.1493 208.751 38.808C208.389 38.4667 208.207 37.9973 208.207 37.4V30.2C208.207 28.984 207.909 28.0347 207.311 27.352C206.714 26.6693 205.882 26.328 204.815 26.328C203.194 26.328 201.935 26.808 201.039 27.768C200.143 28.7067 199.695 30.0293 199.695 31.736V37.4C199.695 37.9973 199.503 38.4667 199.119 38.808C198.735 39.1493 198.223 39.32 197.583 39.32ZM221.591 39.32C220.268 39.32 219.095 39.096 218.071 38.648C217.068 38.2 216.279 37.5813 215.703 36.792C215.148 35.9813 214.871 35.0533 214.871 34.008C214.871 32.4293 215.521 31.1707 216.823 30.232C218.145 29.2933 219.927 28.824 222.167 28.824C224.108 28.824 225.665 29.24 226.839 30.072V29.304C226.839 28.3013 226.529 27.5333 225.911 27C225.292 26.4667 224.396 26.2 223.223 26.2C221.473 26.2 219.969 26.5733 218.711 27.32C218.177 27.6187 217.719 27.768 217.335 27.768C216.865 27.768 216.449 27.5547 216.087 27.128C215.852 26.8293 215.735 26.52 215.735 26.2C215.735 25.6667 216.012 25.1973 216.567 24.792C217.335 24.2373 218.305 23.8 219.479 23.48C220.652 23.16 221.889 23 223.191 23C225.665 23 227.607 23.5653 229.015 24.696C230.444 25.8053 231.159 27.3413 231.159 29.304V37.528C231.159 38.0827 230.967 38.52 230.583 38.84C230.22 39.16 229.719 39.32 229.079 39.32C228.417 39.32 227.905 39.1707 227.543 38.872C227.18 38.5733 226.999 38.1467 226.999 37.592V37.24C225.783 38.6267 223.98 39.32 221.591 39.32ZM222.583 36.376C223.927 36.376 224.972 36.1733 225.719 35.768C226.487 35.3413 226.871 34.7547 226.871 34.008C226.871 33.304 226.487 32.7387 225.719 32.312C224.951 31.8853 223.927 31.672 222.647 31.672C221.495 31.672 220.599 31.8747 219.959 32.28C219.34 32.6853 219.031 33.2613 219.031 34.008C219.031 34.7547 219.34 35.3413 219.959 35.768C220.577 36.1733 221.452 36.376 222.583 36.376Z" fill="white"/>
</svg>
