<svg width="29" height="30" viewBox="0 0 29 30" fill="none" xmlns="http://www.w3.org/2000/svg">
<path d="M26.2812 25.0781L19.2533 17.8066C20.3859 16.1966 20.9951 14.2561 20.9933 12.2648C20.9933 7.05293 16.8942 2.8125 11.856 2.8125C6.81783 2.8125 2.71875 7.05293 2.71875 12.2648C2.71875 17.4768 6.81783 21.7172 11.856 21.7172C13.7809 21.7191 15.6567 21.0888 17.2131 19.9172L24.2422 27.1875L26.2812 25.0781ZM11.856 18.7318C10.6194 18.732 9.4106 18.3527 8.38238 17.6421C7.35416 16.9315 6.55274 15.9214 6.07947 14.7396C5.6062 13.5577 5.48234 12.2573 5.72356 11.0026C5.96478 9.748 6.56023 8.59553 7.43462 7.69099C8.30901 6.78645 9.42306 6.17046 10.6359 5.92092C11.8487 5.67139 13.1058 5.79952 14.2482 6.28911C15.3907 6.7787 16.3671 7.60775 17.054 8.67143C17.741 9.73511 18.1076 10.9856 18.1074 12.2648C18.1055 13.9794 17.4462 15.6231 16.2743 16.8355C15.1023 18.0478 13.5134 18.7298 11.856 18.7318Z" fill="black"/>
</svg>
