<svg width="117" height="150" viewBox="0 0 117 150" fill="none" xmlns="http://www.w3.org/2000/svg">
<path d="M58.5 1.11761C58.5 1.8673 58.11 2.617 57.642 3.21676C54.6 7.63996 51.948 12.438 51.012 17.6109L50.7 19.3352L58.5 18.8854C74.0152 18.8854 88.8949 24.8093 99.8657 35.354C110.837 45.8986 117 60.2002 117 75.1126C117 87.2576 113.1 98.4281 106.236 107.649C95.394 125.192 79.716 139.961 61.152 149.857C60.45 150.082 59.436 150.082 58.968 149.557C58.5 148.808 58.5 147.833 59.202 147.158C62.166 143.26 64.194 138.837 65.286 133.964L65.754 130.89L58.5 131.34C42.9848 131.34 28.1051 125.416 17.1343 114.871C6.16337 104.327 0 90.0249 0 75.1126C0 63.0425 3.9 51.797 10.764 42.6508C21.528 25.0329 37.284 10.1889 55.926 0.143003C56.784 -0.231845 58.032 0.143004 58.5 1.11761ZM58.5 52.6217C52.2939 52.6217 46.3421 54.9913 41.9537 59.2091C37.5653 63.427 35.1 69.1476 35.1 75.1126C35.1 81.0775 37.5653 86.7982 41.9537 91.016C46.3421 95.2339 52.2939 97.6034 58.5 97.6034C64.7061 97.6034 70.658 95.2339 75.0463 91.016C79.4347 86.7982 81.9 81.0775 81.9 75.1126C81.9 69.1476 79.4347 63.427 75.0463 59.2091C70.658 54.9913 64.7061 52.6217 58.5 52.6217Z" fill="white"/>
</svg>
