<svg width="100" height="92" viewBox="0 0 100 92" fill="none" xmlns="http://www.w3.org/2000/svg">
<path d="M99.1139 70.4125C97.1593 73.3511 92.3729 75.4454 92.3729 75.4454L56.7728 90.6903V79.4447L82.9729 68.3127C85.9457 67.0463 86.4002 65.2496 83.9866 64.308C81.5729 63.3609 77.2047 63.6315 74.2274 64.9087L56.7728 72.2362V60.5739L57.7774 60.1626C57.7774 60.1626 62.8228 58.0358 69.9138 57.0995C77.0093 56.1687 85.6956 57.2294 92.5139 60.3087C100.196 63.204 101.059 67.4739 99.1139 70.4125ZM60.1592 51.2711V22.5238C60.1592 19.1468 59.6365 16.0405 56.9774 15.1638C54.9455 14.3845 53.6819 16.6358 53.6819 20.0073V92L37.3955 85.836V0C44.3182 1.53153 54.4092 5.15741 59.8319 7.33294C73.6274 12.9774 78.3047 20.0073 78.3047 35.8367C78.3047 51.2656 70.3138 57.1158 60.1592 51.2711ZM7.50901 78.2758C-0.381927 75.624 -1.69557 70.104 1.8999 66.9273C5.22264 63.9941 10.8772 61.7861 10.8772 61.7861L34.2318 51.8826V63.1715L17.4227 70.3421C14.4545 71.6085 13.9999 73.4052 16.409 74.3468C18.8272 75.2939 23.1954 75.0233 26.1682 73.7515L34.2318 70.2663V80.3593L32.6227 80.684C24.5591 82.2534 15.9727 81.5986 7.50901 78.2758Z" fill="white"/>
</svg>
