<svg width="50" height="50" viewBox="0 0 50 50" fill="none" xmlns="http://www.w3.org/2000/svg">
<path d="M29.7562 7.29374L13.5625 23.9062C13.2781 24.198 13.1189 24.5894 13.1189 24.9969C13.1189 25.4043 13.2781 25.7957 13.5625 26.0875L29.7562 42.7062C29.8887 42.8423 30.0471 42.9505 30.2221 43.0243C30.3971 43.0982 30.5851 43.1362 30.775 43.1362C30.9649 43.1362 31.1529 43.0982 31.3279 43.0243C31.5029 42.9505 31.6613 42.8423 31.7937 42.7062C32.0663 42.4272 32.2189 42.0526 32.2189 41.6625C32.2189 41.2724 32.0663 40.8978 31.7937 40.6187L16.5656 24.9969L31.7937 9.37811C32.0654 9.0992 32.2174 8.72526 32.2174 8.33593C32.2174 7.9466 32.0654 7.57265 31.7937 7.29374C31.6613 7.15767 31.5029 7.04951 31.3279 6.97566C31.1529 6.90182 30.9649 6.86377 30.775 6.86377C30.5851 6.86377 30.3971 6.90182 30.2221 6.97566C30.0471 7.04951 29.8887 7.15767 29.7562 7.29374Z" fill="white"/>
</svg>
