<svg width="35" height="35" viewBox="0 0 35 35" fill="none" xmlns="http://www.w3.org/2000/svg">
<path d="M26.25 32.0834C25.0347 32.0834 24.0017 31.658 23.151 30.8073C22.3003 29.9566 21.875 28.9236 21.875 27.7084C21.875 27.5382 21.8872 27.3618 21.9115 27.179C21.9358 26.9962 21.9722 26.8324 22.0208 26.6875L11.7396 20.7084C11.3264 21.0729 10.8646 21.3588 10.3542 21.5659C9.84375 21.7729 9.30903 21.876 8.75 21.875C7.53472 21.875 6.50174 21.4497 5.65104 20.599C4.80035 19.7483 4.375 18.7153 4.375 17.5C4.375 16.2847 4.80035 15.2518 5.65104 14.4011C6.50174 13.5504 7.53472 13.125 8.75 13.125C9.30903 13.125 9.84375 13.2286 10.3542 13.4356C10.8646 13.6427 11.3264 13.9281 11.7396 14.2917L22.0208 8.31252C21.9722 8.16669 21.9358 8.00287 21.9115 7.82106C21.8872 7.63926 21.875 7.4628 21.875 7.29169C21.875 6.07641 22.3003 5.04342 23.151 4.19273C24.0017 3.34203 25.0347 2.91669 26.25 2.91669C27.4653 2.91669 28.4983 3.34203 29.349 4.19273C30.1997 5.04342 30.625 6.07641 30.625 7.29169C30.625 8.50696 30.1997 9.53995 29.349 10.3906C28.4983 11.2413 27.4653 11.6667 26.25 11.6667C25.691 11.6667 25.1562 11.5636 24.6458 11.3575C24.1354 11.1514 23.6736 10.8656 23.2604 10.5L12.9792 16.4792C13.0278 16.625 13.0642 16.7893 13.0885 16.9721C13.1128 17.1549 13.125 17.3309 13.125 17.5C13.125 17.6702 13.1128 17.8466 13.0885 18.0294C13.0642 18.2122 13.0278 18.376 12.9792 18.5209L23.2604 24.5C23.6736 24.1354 24.1354 23.8501 24.6458 23.644C25.1562 23.4379 25.691 23.3343 26.25 23.3334C27.4653 23.3334 28.4983 23.7587 29.349 24.6094C30.1997 25.4601 30.625 26.4931 30.625 27.7084C30.625 28.9236 30.1997 29.9566 29.349 30.8073C28.4983 31.658 27.4653 32.0834 26.25 32.0834Z" fill="black"/>
</svg>
