<svg width="150" height="150" viewBox="0 0 150 150" fill="none" xmlns="http://www.w3.org/2000/svg">
<path d="M75 0C84.8491 0 94.6018 1.93993 103.701 5.70904C112.801 9.47814 121.069 15.0026 128.033 21.967C134.997 28.9314 140.522 37.1993 144.291 46.2987C148.06 55.3982 150 65.1509 150 75C150 94.8912 142.098 113.968 128.033 128.033C113.968 142.098 94.8912 150 75 150C40.5 150 11.625 126.9 2.7 95.475L31.425 107.325C32.4132 112.127 35.0262 116.442 38.8239 119.543C42.6216 122.644 47.372 124.342 52.275 124.35C63.975 124.35 73.5 114.825 73.5 103.125V102.15L99 83.925H99.6C115.2 83.925 127.875 71.25 127.875 55.65C127.875 40.05 115.2 27.375 99.6 27.375C84 27.375 71.25 40.05 71.25 55.65V56.025L53.475 81.975L52.275 81.9C47.85 81.9 43.725 83.25 40.35 85.575L0 69C3.225 30.375 35.475 0 75 0ZM47.1 113.775C53.1 116.25 60 113.475 62.475 107.475C64.95 101.475 62.1 94.65 56.25 92.175L46.65 88.2C50.325 86.85 54.45 86.775 58.35 88.425C62.325 90 65.4 93.075 66.975 97.05C68.625 100.95 68.625 105.3 66.975 109.2C63.75 117.3 54.225 121.2 46.125 117.825C42.375 116.25 39.525 113.4 37.95 110.025L47.1 113.775ZM118.5 55.65C118.5 66.075 110.025 74.55 99.6 74.55C94.6004 74.5302 89.8124 72.5302 86.2841 68.9879C82.7559 65.4456 80.775 60.6496 80.775 55.65C80.7651 53.1751 81.2452 50.7227 82.1878 48.4343C83.1303 46.1458 84.5166 44.0666 86.2666 42.3166C88.0166 40.5666 90.0958 39.1803 92.3843 38.2378C94.6727 37.2952 97.1251 36.8151 99.6 36.825C104.6 36.825 109.396 38.8059 112.938 42.3341C116.48 45.8624 118.48 50.6504 118.5 55.65ZM85.5 55.65C85.5 63.45 91.8 69.825 99.675 69.825C107.475 69.825 113.775 63.45 113.775 55.65C113.775 47.85 107.475 41.475 99.675 41.475C91.8 41.475 85.5 47.85 85.5 55.65Z" fill="white"/>
</svg>
