<svg width="63" height="62" viewBox="0 0 63 62" fill="none" xmlns="http://www.w3.org/2000/svg">
<path d="M58.9575 15.5C56.9362 16.4042 54.7575 16.9984 52.5 17.2825C54.81 15.9134 56.595 13.7434 57.435 11.1342C55.2562 12.4259 52.8412 13.33 50.295 13.8467C48.2212 11.625 45.3075 10.3334 42 10.3334C35.8312 10.3334 30.7912 15.2934 30.7912 21.4159C30.7912 22.2942 30.8962 23.1467 31.08 23.9475C21.735 23.4825 13.4137 19.065 7.87498 12.3742C6.90373 14.0017 6.35248 15.9134 6.35248 17.9284C6.35248 21.7775 8.32123 25.1875 11.3662 27.125C9.50248 27.125 7.76998 26.6084 6.24748 25.8334V25.9109C6.24748 31.2842 10.1325 35.7792 15.2775 36.7867C13.6256 37.2316 11.8915 37.2935 10.2112 36.9675C10.9242 39.1698 12.3205 41.0968 14.2039 42.4776C16.0873 43.8585 18.363 44.6237 20.7112 44.6659C16.7308 47.767 11.7967 49.4433 6.71998 49.4192C5.82748 49.4192 4.93498 49.3675 4.04248 49.2642C9.02998 52.4159 14.9625 54.25 21.315 54.25C42 54.25 53.3662 37.355 53.3662 22.7075C53.3662 22.2167 53.3662 21.7517 53.34 21.2609C55.545 19.7109 57.435 17.7475 58.9575 15.5Z" fill="white"/>
</svg>
