<svg width="100" height="100" viewBox="0 0 100 100" fill="none" xmlns="http://www.w3.org/2000/svg">
<path d="M74.6 26.0011C73.8784 25.9867 73.1611 26.1147 72.4891 26.3778C71.817 26.6408 71.2034 27.0338 70.6833 27.5341C70.1632 28.0345 69.7469 28.6324 69.458 29.2938C69.1692 29.9552 69.0135 30.667 69 31.3886V31.4636C69.0219 32.9271 69.6242 34.322 70.6743 35.3417C71.7244 36.3613 73.1364 36.9222 74.6 36.9011C77.8625 36.9011 80.45 34.4886 80.45 31.4636C80.4542 28.4136 77.8667 26.0011 74.6 26.0011ZM94.225 26.0011C91.1125 26.0011 88.5583 28.4178 88.5583 31.4636C88.5583 34.4261 91.1125 36.9011 94.2292 36.9011C97.425 36.9011 100 34.4886 100 31.4636C100 28.4136 97.425 26.0011 94.225 26.0011ZM32.3917 28.2636C29.275 28.2636 27.175 29.8219 26.0833 33.3261C25.075 36.8969 18.6083 61.7511 18.6083 61.7511L10.125 28.6511H0C0 28.6511 9.725 63.9178 11.05 68.0511C12.0542 71.2386 14.55 73.8261 18.1333 73.8261C22.3375 73.8261 24.2958 70.7761 25.15 68.0511C26.0875 65.2344 32.3917 41.9636 32.3917 41.9636C32.3917 41.9636 38.7042 65.2511 39.5542 68.0511C40.4917 70.7719 42.4292 73.8261 46.5625 73.8261C50.225 73.8261 52.6292 71.2386 53.7292 68.0511C55.0417 63.9261 64.8 28.6511 64.8 28.6511H54.5917L46.1708 61.7511C46.1708 61.7511 39.7125 36.8969 38.6208 33.3261C37.6125 29.8094 35.4125 28.2636 32.3917 28.2636ZM69.925 42.2761V73.5053H79.6V42.2761H69.925ZM89.4792 42.2761V73.5053H99.1333V42.2761H89.4792Z" fill="white"/>
</svg>
