<svg width="100" height="100" viewBox="0 0 100 100" fill="none" xmlns="http://www.w3.org/2000/svg">
<g clip-path="url(#clip0_34_440)">
<path d="M50 38.4791C62.1125 50.7541 70.65 65.1458 77.7833 81.05C70.1513 87.8989 60.2545 91.6808 50 91.6666C39.7455 91.6808 29.8486 87.8989 22.2166 81.05C29.35 65.1458 37.8833 50.7541 50 38.4791ZM22.9541 18.3041C30.4534 22.3433 37.486 27.1946 43.925 32.7708C31.9 44.9958 23.2583 59.0791 16.1458 74.2958C11.0528 67.2196 8.31913 58.7184 8.33331 50C8.32719 43.9728 9.63164 38.0163 12.1562 32.5433C14.6809 27.0703 18.3653 22.2117 22.9541 18.3041ZM77.0458 18.3041C81.6347 22.2117 85.3191 27.0703 87.8437 32.5433C90.3683 38.0163 91.6728 43.9728 91.6666 50C91.6666 59.0666 88.7708 67.4583 83.8541 74.2916C76.7416 59.0791 68.1 45 56.075 32.7708C62.514 27.1947 69.5465 22.3434 77.0458 18.3041ZM50 8.3333C56.9791 8.3333 63.5583 10.05 69.3375 13.0833C62.4552 17.0884 55.9789 21.7534 50 27.0125C44.021 21.7534 37.5447 17.0884 30.6625 13.0833C36.6271 9.95363 43.2641 8.32335 50 8.3333Z" fill="white"/>
</g>
<defs>
<clipPath id="clip0_34_440">
<rect width="100" height="100" fill="white"/>
</clipPath>
</defs>
</svg>
