<svg width="65" height="65" viewBox="0 0 65 65" fill="none" xmlns="http://www.w3.org/2000/svg">
<path d="M27.0833 40.625L41.1396 32.5L27.0833 24.375V40.625ZM58.3917 19.4187C58.7437 20.6916 58.9875 22.3979 59.15 24.5645C59.3396 26.7312 59.4208 28.6 59.4208 30.225L59.5833 32.5C59.5833 38.4312 59.15 42.7916 58.3917 45.5812C57.7146 48.0187 56.1437 49.5895 53.7062 50.2666C52.4333 50.6187 50.1042 50.8625 46.5292 51.025C43.0083 51.2145 39.7854 51.2958 36.8062 51.2958L32.5 51.4583C21.1521 51.4583 14.0833 51.025 11.2937 50.2666C8.85624 49.5895 7.28541 48.0187 6.60832 45.5812C6.25624 44.3083 6.01249 42.602 5.84999 40.4354C5.66041 38.2687 5.57916 36.4 5.57916 34.775L5.41666 32.5C5.41666 26.5687 5.84999 22.2083 6.60832 19.4187C7.28541 16.9812 8.85624 15.4104 11.2937 14.7333C12.5667 14.3812 14.8958 14.1375 18.4708 13.975C21.9917 13.7854 25.2146 13.7041 28.1937 13.7041L32.5 13.5416C43.8479 13.5416 50.9167 13.975 53.7062 14.7333C56.1437 15.4104 57.7146 16.9812 58.3917 19.4187Z" fill="white"/>
</svg>
